<?xml version="1.0" standalone="no"?>
<!DOCTYPE svg PUBLIC "-//W3C//DTD SVG 1.1//EN" "http://www.w3.org/Graphics/SVG/1.1/DTD/svg11.dtd" >
<svg>
<metadata>
Created by FontForge 20110222 at Sun Sep  8 17:52:14 2013
 By Orthosie Webhosting
Generated by Fontographer 4.1.4
</metadata>
<defs>
<font id="HeatherRegular" horiz-adv-x="246" >
  <font-face 
    font-family="HeatherRegular"
    font-weight="400"
    font-stretch="normal"
    units-per-em="1000"
    panose-1="0 0 4 0 0 0 0 0 0 0"
    ascent="800"
    descent="-200"
    x-height="350"
    cap-height="1002"
    bbox="-111 -395 1361 1175"
    underline-thickness="20"
    underline-position="-123"
    unicode-range="U+0020-2260"
  />
<missing-glyph horiz-adv-x="500" 
d="M63 0v800h375v-800h-375zM125 63h250v675h-250v-675z" />
    <glyph glyph-name=".notdef" horiz-adv-x="500" 
d="M63 0v800h375v-800h-375zM125 63h250v675h-250v-675z" />
    <glyph glyph-name=".null" horiz-adv-x="0" 
 />
    <glyph glyph-name="nonmarkingreturn" horiz-adv-x="500" 
 />
    <glyph glyph-name="space" unicode=" " horiz-adv-x="500" 
 />
    <glyph glyph-name="exclam" unicode="!" horiz-adv-x="312" 
d="M316 1149q1 -2 -23 -112q-30 -144 -50 -274q-31 -196 -41 -375q-3 -56 -14 -65.5t-22 -17.5q-18 -12 -27 -12q-14 0 -16 35q0 -7 0 45q0 75 20 266q26 257 67 419q29 117 79 117q17 0 27 -26zM213 113q9 -34 -3 -60q-18 -39 -41 -39q-24 3 -37 50q-8 28 11 61t37 31
q22 0 33 -43z" />
    <glyph glyph-name="quotedbl" unicode="&#x22;" horiz-adv-x="304" 
d="M286 938q0 -35 -43 -109q-45 -78 -76 -78q-3 2 -3 9q0 4 15 72.5t15 81.5q0 31 30 56q22 18 41 18q21 0 21 -50zM142 938q0 -37 -44 -110q-46 -77 -75 -77q-3 2 -3 9q0 4 15 72.5t15 81.5q0 31 30 56q22 18 41 18q21 0 21 -50z" />
    <glyph glyph-name="quotesingle" unicode="'" horiz-adv-x="168" 
d="M142 938q0 -37 -44 -110q-46 -77 -75 -77q-3 2 -3 9q0 4 15 72.5t15 81.5q0 32 30 56q22 18 41 18q21 0 21 -50z" />
    <glyph glyph-name="parenleft" unicode="(" horiz-adv-x="288" 
d="M295 1048q-4 5 -49 -65q-59 -92 -95 -235q-51 -202 -49 -484q1 -112 74 -217q60 -85 116 -110q7 -3 7 -5t-28 -2q-34 0 -86 37q-63 44 -103 114q-50 88 -51 197q-3 273 63 474q49 148 127 238q63 73 74 58z" />
    <glyph glyph-name="parenright" unicode=")" horiz-adv-x="288" 
d="M239 278q-1 -109 -51 -197q-40 -70 -103 -114q-52 -37 -86 -37q-28 0 -28 2q1 2 7 5q56 25 116 110q73 105 74 217q2 282 -49 484q-36 143 -95 235q-45 70 -49 65q11 15 74 -58q78 -90 127 -238q67 -201 63 -474z" />
    <glyph glyph-name="asterisk" unicode="*" horiz-adv-x="474" 
d="M389 366q0 -18 -42 -19q-38 -1 -41 2q42 -70 42 -90q0 -30 -28 -30q-17 0 -48 17l-43 23q-2 0 -3.5 -42t-2.5 -42q-17 0 -18 42q-1 38 2 41q-22 -12 -44 -25q-29 -15 -46 -15q-32 0 -32 28q0 16 40 86q9 9 -13 10q-14 1 -44 -1l-26 -1q0 18 42 19q38 1 41 -2q-3 5 -25 43
q-17 29 -17 48q0 30 29 30q17 0 45 -16l42 -24q2 -2 3.5 40.5t5.5 42.5q5 0 14 -84q8 4 45 25q32 18 50 18q29 0 29 -28q0 -17 -16 -45l-24 -42q-9 -9 13 -11q14 -1 44 1z" />
    <glyph glyph-name="comma" unicode="," 
d="M176 81q0 -35 -43 -108q-46 -78 -76 -78q-3 1 -3 9q0 4 15 72.5t15 80.5q0 25 23 49.5t48 24.5q21 0 21 -50z" />
    <glyph glyph-name="hyphen" unicode="-" horiz-adv-x="315" 
d="M307 355q-6 -23 -41 -30l-182 -36q-8 -2 -26 19.5t-18 34.5q0 9 12 9q24 -1 115 10q142 17 131 17q13 0 13 -8z" />
    <glyph glyph-name="hyphen" unicode="&#x2010;" horiz-adv-x="315" 
d="M307 355q-6 -23 -41 -30l-182 -36q-8 -2 -26 19.5t-18 34.5q0 9 12 9q24 -1 115 10q142 17 131 17q13 0 13 -8z" />
    <glyph glyph-name="period" unicode="." 
d="M175 84q0 -35 -19 -57q-30 -33 -50 -26q-8 2 -15 17.5t-7 39.5q1 31 28 56t43 20q20 -6 20 -50z" />
    <glyph glyph-name="slash" unicode="/" horiz-adv-x="596" 
d="M653 1072q5 -1 5 -14q0 -50 -69 -244q-70 -198 -164 -409q-30 -68 -59 -137q-32 -73 -57 -116q-113 -197 -230 -239q-54 -20 -67 -11q19 10 58 32q132 89 252 327q86 171 154 391q66 213 66 274q0 14 54 67q20 20 38 54q12 26 19 25z" />
    <glyph glyph-name="zero" unicode="0" horiz-adv-x="8746" 
d="M734 613q-42 -143 -140 -306q-184 -306 -404 -307q-105 -1 -154 108q-34 77 -31 168q10 256 122 435q86 138 225 218q99 57 183 67q22 3 32 3q48 0 44 -41q-1 -12 -3 -23t-17 -11q-8 0 -24.5 2.5t-25.5 2.5q-133 0 -249 -152q-121 -158 -166 -412q-5 -29 -5 -57
q0 -92 55 -150q48 -51 106 -51q124 -1 262 201q57 85 112 203q-70 -34 -127 -34q-96 0 -101 106q-4 91 69 198q69 101 138 101q40 0 73 -69.5t33 -143.5q0 -32 -7 -56zM671 594q11 31 11 63q0 47 -20.5 80t-48.5 33q-17 0 -32 -12q-70 -57 -68 -123q3 -75 64 -75q38 0 94 34
z" />
    <glyph glyph-name="one" unicode="1" horiz-adv-x="596" 
d="M561 935q0 -66 -46 -201q-30 -87 -122 -317q-88 -220 -195 -335q-86 -92 -155 -92q-32 0 -32 13q0 7 10 20q121 155 213 331q100 191 149 334q33 97 33 133q0 38 -44 38q-8 0 -24.5 -3t-24.5 -3q-22 0 -22 13q0 15 24.5 39t56.5 40q84 43 133 43q46 0 46 -53z" />
    <glyph glyph-name="two" unicode="2" horiz-adv-x="839" 
d="M761 759q0 -165 -147 -309q-81 -79 -270 -184q-86 -45 -173 -90q70 -73 236 -80q127 -6 225 57q12 7 30 7q20 0 20 -10q0 -7 -10 -18q-36 -38 -134 -84q-119 -57 -211 -57q-79 0 -190 39q-137 50 -137 117q0 24 18 32q35 14 103 44q106 48 205 110q161 101 225 196
q74 110 74 215q0 71 -37 115q-41 46 -115 49q-159 6 -190 -198q-8 -55 -18.5 -75.5t-33.5 -29.5l-60 -22q-27 -6 -27 29q0 13 4 30q24 107 112 208q120 137 286 138q215 1 215 -229z" />
    <glyph glyph-name="three" unicode="3" horiz-adv-x="799" 
d="M720 848q7 -84 -115 -152q-38 -21 -39 -47q-1 -13 31 -57q41 -60 57 -91q31 -60 29 -111q-3 -107 -79 -202q-164 -205 -408 -196q-65 2 -120 33q-77 43 -79 122q-2 73 110 88q26 3 27 -48q2 -137 119 -140q71 -2 120 21q37 18 88 66q95 89 95 176q0 79 -71 165
q-67 81 -67 122q0 38 51 75q35 23 69 46q44 39 42 86q-2 53 -50 78q-34 18 -75 18q-39 0 -54 -23q-8 -15 -27 -43q-21 -23 -60 -23q-35 0 -35 25q0 24 43 66q36 34 65 51q67 38 148 38q75 0 124 -34q55 -38 61 -109z" />
    <glyph glyph-name="four" unicode="4" horiz-adv-x="701" 
d="M632 366q11 -15 11 -35q0 -34 -31 -50q-40 -21 -169 -29q-50 -115 -69 -155q-26 -53 -64 -74q-32 -12 -65 -24q-12 -4 -12 10q0 22 31 99q23 54 45 109q3 7 14 34q-241 12 -289 110q-21 43 -21 92q0 155 208 382q79 86 132 129q22 16 43 31q5 4 21 3q15 -2 15 -7
q-2 -26 -40 -66t-116 -138q-107 -134 -131.5 -191t-24.5 -101q0 -137 239 -158l93 213q7 18 55 28q39 9 63 6q9 -1 9 -10q0 -4 -21.5 -52.5t-78.5 -183.5q42 5 91 20q43 13 51 13t11 -5z" />
    <glyph glyph-name="five" unicode="5" horiz-adv-x="789" 
d="M717 816q-30 -30 -73 -51q-47 -22 -86 -22q-40 0 -70 23q-18 14 -39 43q-16 22 -23 22q-5 0 -10 -8q-13 -18 -36.5 -54t-23.5 -62q0 -32 62 -70q106 -65 148 -124q37 -53 36 -121q-2 -72 -22 -123q-16 -42 -54 -89q-44 -54 -143 -127q-82 -60 -146 -60q-71 0 -157.5 89
t-84.5 201q2 109 44 143q72 59 104 59q16 0 16 -14q0 -7 -5 -16q-11 -22 -23 -69q-14 -51 -15 -83q-2 -64 41 -134q53 -84 136 -92q54 -5 127 59q66 58 66 167q0 105 -60 147l-112 78q-59 42 -59 100q0 54 101 203l58 88q29 39 73 71q18 13 41 13q25 0 23 -22q-4 -51 -4 -41
q0 -51 36 -85q27 -25 55 -25q15 0 29 7q27 14 46 14q18 0 18 -12q0 -9 -14 -23z" />
    <glyph glyph-name="six" unicode="6" horiz-adv-x="717" 
d="M653 997q2 -28 1 -36q-3 -22 -22 -32l-112 -48q-101 -46 -153 -95q-82 -77 -148 -184q-94 -153 -94 -290q0 -114 66 -173q53 -49 130 -49q32 0 58 10q61 24 117 102q64 89 64 183q0 25 -5 49q-18 86 -85 127q-48 29 -106 29q-9 0 -27 -3t-27 -3q-11 0 -26 5q-20 5 -20 14
q0 3 12 16q33 38 54 67q6 8 27 17q29 11 65 10q104 -3 168 -81q55 -70 56 -161q1 -90 -49 -195q-48 -101 -121 -170q-69 -66 -129 -94q-65 -30 -138 -24q-89 7 -145 66q-68 73 -68 213q0 148 99 304q92 147 247 265q139 106 225 136q26 9 55 23q21 10 25 10q5 0 6 -8z" />
    <glyph glyph-name="seven" unicode="7" horiz-adv-x="753" 
d="M700 483q-43 -61 -69 -59q-54 5 -151 5q-177 -366 -207 -410q-15 -22 -115 -22q-14 0 -14 10q0 8 34 70q101 183 186 350q-97 -5 -185 -18q-83 -12 -126 -25q-32 -9 -30 -9q-11 0 -11 10q0 25 39 46q36 20 132 43q115 28 221 33q68 138 109 241q6 16 6 33q0 50 -51 87
q-56 41 -146 43q-68 2 -151.5 -26.5t-77.5 -28.5q-8 0 -8 17q0 18 5 34q1 12 96 52q108 46 186 46q79 0 137 -26q10 -5 88 -53q59 -36 59 -100q0 -32 -16 -65q-22 -48 -120 -251q-5 0 141 -9q42 -3 42 -11q0 -3 -3 -7z" />
    <glyph glyph-name="eight" unicode="8" horiz-adv-x="796" 
d="M718 771q-1 -57 -59 -109q-52 -46 -165 -103q57 -51 84 -80q44 -48 44 -143q0 -47 -11 -97q-16 -74 -102 -153q-106 -98 -234 -94q-159 5 -228 98q-47 65 -47 163q0 21 2 42q8 72 75 129q53 46 165 95l61 27q-47 46 -67 85q-25 46 -27 106t40 104q7 8 73 56
q120 89 209 89q16 0 29 -4q66 -20 108 -65q52 -58 50 -146zM602 782q-1 34 -36 70q-40 42 -90 42q-30 0 -61 -17q-78 -43 -78 -113q0 -46 33 -88q16 -20 70 -68q70 33 112 59q34 21 44 50q7 21 6 65zM511 286q-5 59 -54 119q-29 33 -97 91q-7 -3 -67 -30q-67 -30 -112 -84
q-55 -65 -50 -141q4 -72 48 -124q51 -61 134 -63q86 -2 147 76q57 73 51 156z" />
    <glyph glyph-name="nine" unicode="9" horiz-adv-x="712" 
d="M673 708q0 -147 -98 -304q-93 -147 -247 -265q-136 -103 -225 -136q-23 -8 -55 -23q-21 -9 -26 -9q-6 0 -6 8q-2 31 -1 36q3 22 22 32q56 24 112 47q101 47 154 96q81 76 147 183q94 154 94 291q0 113 -65 173q-53 48 -129 48q-33 0 -59 -10q-61 -24 -117 -102
q-64 -90 -64 -184q0 -24 5 -48q17 -86 84 -126q49 -29 107 -29q9 0 26.5 2.5t26.5 2.5q11 0 26 -4q20 -6 20 -14l-11 -17q-27 -31 -54 -66q-6 -8 -27 -17q-29 -11 -65 -10q-104 3 -168 82q-55 69 -56 160q-1 89 49 194q49 101 121 170q134 128 267 118q89 -7 144 -66
q68 -73 68 -213z" />
    <glyph glyph-name="colon" unicode=":" 
d="M168 354q-1 -36 -19 -57q-11 -13 -27 -21t-24 -5q-23 8 -22 58q0 29 29 56q26 24 43 19q21 -7 20 -50zM174 83q0 -36 -19 -58q-28 -32 -51 -25q-24 7 -22 57q1 31 28 56.5t44 19.5q20 -7 20 -50z" />
    <glyph glyph-name="semicolon" unicode=";" 
d="M168 354q-1 -36 -19 -57q-29 -34 -50 -26q-23 8 -22 58q0 29 29 56q26 24 43 19q20 -6 19 -50zM177 83q0 -35 -43 -108q-46 -78 -76 -78q-3 2 -3 9q0 4 15 72.5t15 80.5q0 25 23 49.5t48 24.5q21 0 21 -50z" />
    <glyph glyph-name="question" unicode="?" horiz-adv-x="848" 
d="M787 813q-9 -164 -122 -289q-82 -91 -239 -176q-116 -60 -231 -120q-3 -2 -5 -2q-1 0 -14 12t-13 15t5 8q48 41 234 160q87 56 149 131q97 117 97 246q0 19 -2 38q-8 66 -56 99q-38 26 -92 27q-177 3 -207 -282q-2 -20 -43 -35q-34 -12 -63 -12q-12 0 -13 3q-9 39 0 59
q27 63 55 125q50 96 120 150q94 73 225 73q109 0 165 -58.5t50 -171.5zM219 74q-1 -28 -24 -54.5t-43 -26.5q-21 0 -25 44q-4 39 16 62q33 38 55 28q8 -4 14.5 -20.5t6.5 -32.5z" />
    <glyph glyph-name="A" unicode="A" horiz-adv-x="1248" 
d="M1222 995q4 -3 4 -13q0 -22 -13 -52q-133 -300 -311 -718q34 -3 67 -3q136 0 223 43q20 10 28 0q4 -5 4 -12t-4 -9q-114 -54 -157 -68q-88 -29 -195 -30q-37 -89 -41 -95q-22 -37 -83 -37q-8 0 -22 6q-5 7 2 26t29 64q14 26 22 42q-75 14 -176 46q-122 -131 -223 -191
q-93 -55 -194 -63q-73 -6 -133 54q-54 54 -50 96q0 10 28 28q38 24 56 18q13 -4 20 -34q23 -93 87 -95q163 -6 360 202q-49 16 -92 31q-92 31 -141 31q-52 0 -111 -47q-15 -6 -21 0q-7 7 -7 13q0 7 7 13q62 75 213 75q56 0 117 -13q34 -7 101 -28q48 56 155 197
q114 161 265 368q26 32 40.5 58.5t29.5 52.5q30 50 83 50q22 0 33 -6zM1000 702q-195 -277 -335 -443q87 -27 150 -37q61 133 126 307l56 152q12 20 3 21z" />
    <glyph glyph-name="B" unicode="B" horiz-adv-x="1158" 
d="M1161 823q1 -11 1 -22q0 -110 -165 -219l48 -22q45 -24 72 -55q37 -43 37 -97q0 -13 -2 -27q-34 -212 -192 -311q-107 -67 -246 -72q-40 -1 -112 29q-84 36 -86 76q-1 10 27 26.5t44 15.5q8 0 27 -26q56 -75 152 -73q80 2 152 45q113 69 145 218q5 25 5 48q0 83 -67 133
q-55 42 -122 42q-17 0 -31 -4q-48 -13 -54 3q-6 18 71 51q86 37 123 64q75 55 79 130q2 38 -35 84q-50 61 -139 71q-26 3 -51 3q-114 0 -206 -60q-73 -48 -119 -124q-39 -64 -38 -102v-70q0 -22 -34 -36q-24 -10 -35 -10q-10 0 -15 9q0 2 -6 23q-5 19 0 61q8 64 61 142
q63 91 160 149q118 70 264 76q140 6 222 -65q57 -49 65 -104zM893 851q0 -18 -49 -140q-73 -180 -186 -368q-62 -102 -168 -198q-156 -142 -308 -156q-20 -2 -36 -2q-74 0 -120 51q-40 44 -40 108q0 83 59 168q54 79 98 84q34 4 39 -2q5 -9 -8 -18q-26 -18 -61 -89
q-41 -82 -41 -145q0 -55 34 -83t80 -28q111 0 253 143q133 134 195 284q51 125 102 251q50 123 62 132q33 27 76 27q19 0 19 -19z" />
    <glyph glyph-name="C" unicode="C" horiz-adv-x="687" 
d="M733 941q0 -4 -27.5 -33.5t-45.5 -29.5q-2 0 -23 12q-24 15 -48 24q-38 12 -81 12q-113 0 -216 -94q-92 -84 -150 -212q-56 -124 -56 -224q-3 -23 -3 -51q0 -97 36 -166q53 -102 177 -119q16 -2 32 -2q99 0 217 75q74 48 139 113q13 8 19 0q2 -1 -3 -9q-11 -21 -70 -78
q-71 -68 -166 -113q-103 -49 -192 -49q-117 0 -195 79q-86 89 -86 241q0 33 4 68q21 172 124 320q91 132 222 213q126 78 234 78q23 0 43 -4q114 -21 115 -51z" />
    <glyph glyph-name="D" unicode="D" horiz-adv-x="886" 
d="M889 498q-12 -214 -155 -354q-154 -150 -350 -145q-192 5 -301 105q-80 75 -83 155q0 11 33 40t47 29q6 0 6 -7q0 -125 104 -204q56 -43 104.5 -61t115.5 -19q100 -1 168 31q60 28 117.5 94t81.5 124q27 64 27 146v120q-3 58 -22 104q-23 54 -81 122q-112 131 -308 131
q-22 0 -46 -2q-35 -6 -91 -14q-18 -2 -18 6q0 4 5 13q10 21 35 61q16 21 93 21q16 0 46 -1t40 -1q173 3 304 -136q139 -148 128 -358zM633 741q-1 -9 -40 -73q-58 -93 -119 -220q-18 -38 -96 -212q-34 -78 -49 -83q-29 -10 -46 -10t-17 12q1 22 44.5 131.5t88.5 201.5
q88 178 96 193q57 93 114 93q27 0 24 -33z" />
    <glyph glyph-name="E" unicode="E" horiz-adv-x="831" 
d="M870 926q0 -9 -27 -29.5t-39 -19.5q-35 18 -71 37q-80 36 -153 36q-113 0 -196 -86q-76 -78 -76 -146q0 -39 25 -72q131 54 288 61q100 5 146 -26q31 -21 29 -43q-4 -42 -61 -76q-75 -44 -214 -52q-149 -9 -238 57q-165 -106 -186 -234q-5 -29 -5 -55q0 -110 81 -170
q78 -57 216 -57q112 0 215 36q76 26 147 72q41 29 81 57q15 10 19 0q7 -20 0 -24q-49 -36 -98 -73q-76 -52 -161 -80q-116 -37 -262 -37q-157 0 -244 71t-87 193q0 87 64 177q67 94 182 160q-36 45 -36 100q0 77 70 147q146 145 342 145q73 0 168 -22q82 -19 81 -47z
M700 613q3 45 -137 45q-92 0 -195 -46q41 -31 101 -48q54 -15 94 -11q53 5 94.5 22t42.5 38z" />
    <glyph glyph-name="F" unicode="F" horiz-adv-x="948" 
d="M938 895q3 -66 -61 -66q-43 0 -116 35q-82 39 -153 39q-73 0 -121 -43t-48 -119q0 -43 15.5 -93.5t15.5 -47.5q-3 -23 -27 -40t-34 -12q-52 28 -52 136q0 118 118 217q109 91 205 91q257 -68 258 -97zM947 168q13 -4 -13 -23q-45 -33 -77 -49q-72 -37 -142 -38
q-69 -1 -170 29q-149 -376 -407 -414q-21 -3 -41 -3q-87 0 -135 58q-37 45 -33 80q2 18 32 34q26 13 35 12l12 -38q15 -44 43 -70q41 -38 107 -38q154 0 267 277q6 14 44 127q-109 39 -135 47q-70 20 -111 16q-97 -10 -130 -62q-10 -6 -16 0t2 16q21 29 49 50q67 51 158 53
q70 2 209 -44q188 558 206 581q39 49 93 49q17 0 20 -20l-240 -636q148 -47 204 -47q15 0 27 2q51 9 99 31q42 20 43 20z" />
    <glyph glyph-name="G" unicode="G" horiz-adv-x="932" 
d="M914 901q-2 -15 -32.5 -36t-42.5 -16q7 0 -69.5 42t-118.5 43q-35 1 -52 1q-118 0 -199 -58q-109 -79 -244 -307q-45 -77 -53 -178q-2 -22 -2 -43q0 -157 95 -229q68 -53 171 -53q126 0 242 76q64 42 139.5 121.5t109.5 90.5q20 10 31 0q2 -2 2 -7q0 -33 -84 -227
q-82 -190 -134 -252q-31 -37 -141 -101q-122 -71 -241 -71q-78 0 -149 31q-80 35 -79 63q1 15 25.5 29t40.5 12q15 -2 40 -25q14 -13 28 -25.5t31 -20.5q61 -28 119 -28q114 0 224 113q50 52 98 155q15 33 70 175q5 14 0 16q-2 1 -72 -47q-88 -60 -162 -94
q-114 -52 -207 -52q-106 0 -181 55q-118 88 -118 295q0 179 129 338q108 135 278 224q154 81 267 81q102 0 178 -34q67 -30 63 -57z" />
    <glyph glyph-name="H" unicode="H" horiz-adv-x="1181" 
d="M1211 832q-48 -111 -299 -655q83 -8 127 2q70 16 105 31q19 11 39 22q10 8 22 2q4 -3 -4 -14q-18 -27 -114 -66q-111 -45 -207 -48q-13 -30 -16 -42q-3 -36 -18 -46q-23 -8 -47 -17q-32 -7 -37 0q3 15 7 33q10 19 41 77q-127 23 -344 93q-159 -232 -313 -241
q-55 -3 -104.5 26.5t-48.5 64.5q0 15 22 27q19 11 36 11q6 0 23 -30q20 -35 26 -41q26 -27 68 -25q94 6 224 229q-98 28 -149 28t-77 -13q-28 -16 -56 -33q-13 -5 -13 6q0 6 8 13q13 10 25 21q32 22 72 36q55 19 117 17q43 -1 107 -14q90 172 161 361q47 126 95 265
q18 51 28 64q5 6 23 9q70 10 77 6q5 -3 0 -29q-41 -105 -80 -199q-93 -225 -158 -360q-33 -69 -72 -134l170 -46q100 -26 172 -38q28 53 49 98q102 260 212 531q24 38 78 38q24 0 24 -15q0 -3 -1 -5z" />
    <glyph glyph-name="I" unicode="I" horiz-adv-x="900" 
d="M929 896q0 -7 -116 -257q-39 -88 -78 -175q-50 -105 -101 -178q-67 -94 -157 -164q-63 -49 -144 -84q-95 -42 -167 -42q-78 0 -116 51q-29 39 -29 100q0 84 51 187q45 90 73 102q45 19 68 19q16 0 16 -8q0 -2 -1 -4q-114 -166 -114 -291q0 -101 71 -101q99 1 145 21
q78 33 166 151q79 105 191 352q108 239 138 286q-140 74 -398 69q-178 -3 -270 -105q-52 -57 -68 -133q-1 -5 -15 -12l-26 -11q-23 -12 -35 -12q-16 0 -16 18q0 10 4 22q67 114 181 193q161 112 372 112q28 0 57 -2q134 -9 234 -48q84 -33 84 -56zM900 175q1 -2 0 -11
q0 -10 -3 -12q-72 -61 -182 -96q-84 -27 -130 -25q-18 1 -8 15q9 13 16 16q4 1 27 6q66 13 111 28q66 22 109 50q47 30 56 30q3 0 4 -1z" />
    <glyph glyph-name="J" unicode="J" horiz-adv-x="953" 
d="M928 889q-75 -185 -139 -340q-154 -370 -231 -524q70 11 139 22q77 13 115 25q34 11 47 11q5 0 6 -2q6 -10 -35.5 -31.5t-275.5 -62.5l-17 -3q-14 -27 -21 -37q-182 -278 -333 -328q-41 -14 -78 -14q-55 0 -74 34t-19 67q0 102 176 197q115 61 252 98l6 1l2 4
q90 211 181 422q181 419 196 433q-13 19 -91 38q-92 23 -205 23q-102 0 -157 -10q-89 -15 -154 -64q-75 -55 -104.5 -114.5t-29.5 -147.5q0 -12 -20 -26q-24 -17 -58 -20q-14 -1 -14 34q0 53 40 141q35 76 165 162q165 110 350 116q183 6 291 -35q81 -30 90 -69zM422 -45
q-81 -26 -240 -120q-31 -18 -60 -59q-31 -44 -31 -77q0 -45 62 -45q106 0 269 301z" />
    <glyph glyph-name="K" unicode="K" horiz-adv-x="1252" 
d="M1306 730q0 -21 -10 -25l-106 -52q-102 -51 -163 -92q-81 -54 -264 -214q31 -92 62 -146q78 -137 168 -137q53 0 154 53q54 28 66 36q25 15 52 41q5 5 20 0q9 -1 0 -15q-21 -30 -135 -99q-125 -73 -187 -80q-105 -11 -200 134q-48 73 -48 146q0 24 5 48
q-58 -82 -127 -142q-105 -91 -211 -155q-113 -68 -174 -72q-202 -12 -202 175q0 76 34 163q43 109 128 136q29 9 30 0q0 -2 -31 -55q-38 -64 -59 -114q-32 -74 -32 -128q0 -55 35 -87q46 -42 108 -42q122 0 256 134q129 129 185 246q83 173 201 400q37 71 37 102q0 9 -46 23
q-62 19 -149 19q-33 0 -68 -3q-214 -17 -317 -135q-74 -85 -74 -187q-8 -24 -35 -39q-22 -13 -39 -13q-10 0 -10 29q0 51 20 105q28 74 89 123q89 73 166 110q153 74 337 74q33 0 67 -2q51 -4 96 -14q70 -16 72 -40q1 -13 -16 -51q-2 -5 -69 -153l-48 -118q-39 -94 -77 -165
l234 188q174 134 250 144q25 3 25 -54z" />
    <glyph glyph-name="L" unicode="L" horiz-adv-x="1105" 
d="M1136 958q0 -4 -16 -25l-4 -5q-19 -25 -29 -25q-17 2 -36.5 16t-32.5 17q-30 6 -60 2q-41 -6 -107 -156q-62 -154 -125 -309q-81 -191 -146 -265q-15 -17 -46 -51q267 -105 358 -105q48 0 101 23q33 14 77 42q35 23 40 23q3 0 3 -4q0 -6 -6 -18q-36 -35 -77 -61
q-98 -61 -206 -62q-68 -1 -174 32q-98 34 -195 67q-107 -69 -259 -93q-15 -2 -35 -2q-61 0 -105 18q-57 23 -57 69q0 69 94 103q65 24 149 26q114 2 208 -28q2 0 31 -10q31 47 101 224q82 207 130 301q85 169 169 240q61 51 136 51q119 0 119 -35zM409 109q-108 34 -188 39
q-85 5 -138 -19q-44 -20 -42 -41q2 -22 35 -38q39 -20 103 -20q50 0 114.5 22.5t115.5 56.5z" />
    <glyph glyph-name="M" unicode="M" horiz-adv-x="1213" 
d="M1231 199q10 0 10 -6q0 -11 -18 -24q-27 -21 -53 -42q-64 -47 -125 -78q-87 -43 -163 -48q-104 -8 -104 138q0 54 14 126q-121 -121 -250 -249q-20 -22 -32 -22q-10 0 -10 15q0 9 3 16q19 41 122 402q9 31 3 31q-2 0 -6 -5q-49 -69 -99 -138q-98 -133 -182 -211
q-117 -109 -201 -109q-21 0 -39 6q-104 36 -104 143q0 82 60 199q35 66 76 122q32 44 71 58q29 6 59 12q6 1 10 1q9 0 9 -6q0 -14 -18 -26q-25 -17 -101 -133q-93 -143 -93 -223q0 -59 51 -78q20 -7 41 -7q196 0 514 549q13 22 13 43v10q-1 7 -1 10q0 19 11 38q6 11 46.5 99
t45.5 101q19 50 31 60q1 0 41 15q24 9 40 9q30 0 26 -23q0 -2 -11 -12t-19 -24q-41 -72 -146 -378q-59 -175 -118 -349q-15 -40 -15 -54q0 -8 4 -8q2 0 5 2q39 35 178 180q5 20 12 43q110 362 243 520q83 99 149 99q8 0 11 -2q26 -19 26 -67q0 -73 -64 -183
q-76 -132 -262 -337q-27 -90 -45 -162q-12 -47 -12 -84q0 -104 84 -104q48 0 109 37q99 59 152 102q0 6 21 6zM1166 918q-20 4 -76 -94q-71 -124 -137 -322q100 127 175 253q46 78 46 142q0 19 -8 21z" />
    <glyph glyph-name="N" unicode="N" horiz-adv-x="1021" 
d="M1030 610l-236 -371q-51 -75 -51 -130q0 -11 1 -24q4 -35 -14 -56q-2 -4 -36 -31q-12 -10 -17 -10q-8 0 -19 46q-6 26 -6 68q0 81 10 115q-10 -3 -14 6.5t-3 47.5q0 6 -4 93q-118 -170 -253 -273q-123 -94 -203 -91q-185 6 -185 205q0 112 86 217q55 68 106 97
q18 10 30 10q10 0 10 -9q0 -12 -21 -40q-131 -178 -131 -289q0 -68 49 -104q40 -28 95 -28q18 0 33 4q191 49 380 359q-9 174 -1 263q15 175 91 256q51 55 108 55q9 0 13 -2q29 -17 29 -88q0 -144 -154 -411q0 -63 2 -139t2 -72q0 -76 16 -76q5 0 12 17q54 135 157 296
q72 113 113 161q4 5 7 5q5 0 5 -16q0 -21 -7 -61zM1025 93q-118 -87 -204 -83q-4 0 -4 5q0 21 23 26q108 23 175 66q7 5 11 5q6 0 4 -9q-1 -7 -5 -10zM792 922q-26 -26 -39 -69q-15 -49 -24 -157q-3 -35 -5 -116q38 78 57 139q29 90 29 175q0 33 -10 33q-3 0 -8 -5z" />
    <glyph glyph-name="O" unicode="O" horiz-adv-x="1000" 
d="M973 512q-12 -23 -27 -40q-36 -40 -78 -44q-73 -164 -195 -278q-165 -154 -365 -154q-154 0 -239 92q-78 85 -78 224q0 110 50 227q94 218 294 347q168 109 322 109q113 0 194 -50q61 -38 65 -65q2 -13 -20.5 -28t-40.5 -17q-10 -1 -14 4t-9 11q-37 46 -60 62
q-55 39 -137 39q-119 0 -247 -96q-122 -92 -206 -237q-88 -152 -98 -304q-9 -129 71 -198q69 -61 185 -61q152 0 263 89q143 115 229 289q-42 15 -70 71q-22 47 -22 86q0 50 26 100q34 66 93 66q66 0 66 -103q0 -66 -28 -150q20 -1 47 11q21 9 29 17q2 2 4 2q3 0 3 -4
q0 -6 -7 -17zM956 166q-5 -33 -111 -71q-110 -39 -133 -39q-11 0 -11 7q0 13 41 26q17 5 81 28q102 40 115 48q3 2 7.5 3.5t7.5 1.5q3 -1 3 -4zM869 517q26 64 26 113q0 39 -15 64q-11 18 -20 19q-34 3 -41 -90q-6 -83 48 -111z" />
    <glyph glyph-name="P" unicode="P" horiz-adv-x="1136" 
d="M1176 670q0 -124 -98 -246q-106 -131 -199 -131q-17 0 -34 7q-21 10 -21 24q0 7 18 24q22 21 47 21h46q63 0 109 84q42 69 42 177q0 123 -48 200q-71 112 -235 111q-102 -1 -196 -90q-107 -103 -120 -259q-3 -37 20 -86q21 -34 21 -47q0 -6 -23.5 -26t-37.5 -20
q-11 0 -29 33q-22 40 -22 132q0 62 43 151q54 110 142 178q111 86 258 86q203 0 280 -153q37 -75 37 -170zM1149 168q11 -8 -3 -18q-114 -76 -222 -119q-84 -34 -122 -34q-7 0 -19 3q-17 11 1 17q147 49 201 72q37 16 142 74q16 9 22 5zM967 841q-62 -168 -214 -566
q-18 -45 -70 -132q-86 -142 -183 -230q-134 -123 -269 -123q-81 0 -142 40q-95 62 -95 204q0 108 37 190q28 60 71 98q33 29 45 27q6 -1 6 -10q0 -14 -14 -45q-57 -124 -57 -242q0 -94 41 -148q46 -62 140 -62q139 0 261 152q76 95 104 175q7 19 148 433q66 195 78 210
q39 49 93 49q17 0 20 -20z" />
    <glyph glyph-name="Q" unicode="Q" horiz-adv-x="1023" 
d="M1033 -41q-32 -18 -76 -18q-62 0 -133 36q-80 46 -230 129q-162 -121 -305 -114t-219 103q-68 87 -68 224q0 156 83 298q101 172 288 283q161 97 284 97q90 0 172 -42q48 -25 77 -53q7 -7 7 -16q0 -10 -9 -22q-17 -22 -44 -26q-13 -2 -20 4t-14 13l-28 30q-29 29 -64 45
q-48 24 -106 23q-109 -1 -236.5 -92t-210.5 -229q-91 -152 -91 -304q0 -118 57 -189q65 -80 188 -80q116 0 226 65q-51 27 -84 35q-37 9 -64 9q-36 0 -62.5 -16.5t-50.5 -32.5q-4 -3 -11 -3q-13 0 -13 8q0 5 8 13q67 70 178 70q85 0 163 -39q134 107 217 272
q-119 30 -110 168q4 64 50 111q40 40 74 38q29 -2 48 -30q20 -32 20 -87q0 -69 -26 -140q31 0 75 37l48 46q4 3 6 3q8 0 4 -24q-89 -136 -162 -128q-10 -18 -44 -79q-57 -100 -172 -201q51 -34 147 -88q55 -25 233 -92q12 -4 12 -5q0 -3 -12 -10zM869 508q21 68 21 119
q0 42 -13 66q-11 21 -24 21q-14 0 -25.5 -30.5t-11.5 -66.5q0 -76 53 -109z" />
    <glyph glyph-name="R" unicode="R" horiz-adv-x="1296" 
d="M1277 717q0 -116 -96 -236q-103 -128 -224 -128q-47 0 -59 -3q-26 -7 -27 -33q-1 -20 -1 -69q0 -82 45 -141q42 -55 94 -55q61 0 137 46q72 39 102 43q7 2 9 -1q3 -4 -106 -69q-111 -73 -195 -73q-164 0 -164 258q0 128 36 160q17 15 45 25t34 6q2 -1 2 -4q0 -2 -5 -15.5
t-3 -23.5q3 -17 4 -19q3 -6 18 -6q7 0 18 1q28 3 81 41q66 46 108 108q53 79 53 165q0 130 -88 197q-71 54 -175 54q-106 0 -198 -46q-117 -58 -176 -177q-21 -42 -10 -179q2 -28 -30 -38q-12 -4 -19 -4q-34 0 -34 97q0 55 20 110q34 89 113 146q118 84 157 103
q80 36 202 36q135 0 233.5 -83t98.5 -193zM995 883q-43 -97 -181 -378q-111 -217 -262 -359q-117 -110 -244 -164q-93 -39 -146 -36q-56 3 -104 42q-60 48 -60 127q0 19 4 39q23 130 74 214q37 62 84 92q35 23 46 18q5 -1 5 -7q0 -14 -22 -45q-72 -103 -97 -192
q-4 -15 -13 -84q-6 -46 12 -89q31 -74 124 -68q126 8 257 143q127 133 244 371q32 66 101 224q55 125 63 133q44 45 97 40q17 -2 18 -21z" />
    <glyph glyph-name="S" unicode="S" horiz-adv-x="857" 
d="M910 971q5 -16 -39 -46q-16 -11 -36 -13q-24 -2 -120 -1t-162.5 -45t-72.5 -110q-3 -31 36 -54q54 -27 107 -54q87 -44 159 -102q81 -65 81 -159q0 -63 -38 -130q-32 -58 -78 -98q-72 -62 -179 -108q-120 -52 -217 -52q-136 0 -248 66q-84 48 -97 83q-2 6 5.5 14.5
t15.5 16.5q5 6 19.5 16t21.5 9q6 -1 28 -26q108 -121 314 -121q51 0 78 5q66 11 137 51q78 44 121 113q40 63 40 126q0 48 -23 81q-31 45 -144 104q-151 78 -178 97q-51 36 -51 78q0 63 127 170q123 103 331 110q23 1 41.5 -6t20.5 -15z" />
    <glyph glyph-name="T" unicode="T" horiz-adv-x="1028" 
d="M1044 974q0 -11 -23.5 -35.5t-38.5 -24.5q-88 20 -149 20q-13 0 -24 -1q-193 -18 -311 -55q-86 -27 -102 -51q-9 -13 -15 -40q-4 -18 -7 -36q-3 -12 -16.5 -27t-26.5 -19q-18 -5 -18 31q0 50 49 98q67 67 237 121q143 46 305 46q140 0 140 -27zM1046 225q5 -5 -1 -15
t-13 -14q-121 -68 -238 -107q-83 -28 -123 -31q-24 -2 -43 6.5t-19 16.5q0 7 30 20q5 2 43 0q43 -2 71 3q102 19 267 109q25 14 26 12zM830 885q8 1 8 -6q0 -3 -15 -38l-90 -224q-100 -232 -171 -328q-89 -120 -209 -206q-127 -91 -207 -83q-145 14 -145 192q0 18 2 37
q8 86 47 160q33 64 66 82q55 30 65 22q1 -1 1 -3q0 -1 -16 -27q-98 -156 -98 -253q0 -74 39 -122q35 -43 80 -43q53 0 137 61q106 78 180 209q99 174 161 337q28 85 57 171q16 48 108 62z" />
    <glyph glyph-name="U" unicode="U" horiz-adv-x="1045" 
d="M1083 804q-123 -210 -173 -303q-146 -275 -146 -364q0 -60 60 -60q49 0 103 32q33 19 116 77q14 6 15 0q10 -29 -131 -101q-113 -58 -183 -58q-34 0 -51 35q-13 27 -13 66q0 36 11 83q6 25 13 50q-125 -102 -176 -135q-189 -122 -338 -124q-64 -1 -88 37q-35 55 -35 131
q0 169 158 415q51 80 132 154q40 36 129 104q65 49 78 71q-148 39 -229 39q-146 0 -235 -84q-35 -33 -35 -80q0 -3 1 -19.5t1 -18.5q0 -19 -22 -39t-38 -20q-4 0 -7 2q-14 10 0 70q6 25 29 62q50 79 121 117q103 55 245 55q5 0 25.5 1t36.5 1q124 0 202 -52
q-83 -71 -249 -243q-115 -120 -187 -276q-67 -143 -67 -248q0 -70 32.5 -94.5t79.5 -24.5q115 0 289 124q155 111 192 185q20 40 152 281q52 95 79 125q13 14 44 32t49 18q7 0 10 -3q10 -10 0 -20z" />
    <glyph glyph-name="V" unicode="V" horiz-adv-x="899" 
d="M935 625q-2 -25 -81 -100q-109 -103 -164 -174q-84 -117 -219 -298q-41 -50 -64 -50q-13 0 -13 15q0 10 6 24q25 57 36 197q6 92 9 287q2 144 -69 278q-75 142 -171 142q-58 0 -112 -58q-16 -17 -28 -57q-16 -49 -16 -107q0 -141 90 -281q30 -47 29 -51q-23 -40 -55 -40
q-3 0 -34 37q-25 30 -52 105q-35 97 -35 188q0 139 83 232q71 80 164 80q60 0 117 -33q50 -29 75 -69q21 -33 42 -65q25 -44 37 -100q16 -73 16 -181q0 -152 -31 -387q4 -2 31 27q31 33 63 77q48 68 147 202q90 119 179 198q13 12 20 0q3 -4 0 -38zM907 132q-15 -19 -59 -39
q-39 -18 -106 -43q-79 -31 -100 -33q-13 -1 -24 -1q-30 0 -30 10q0 4 6 6q193 56 307 109q19 8 6 -9z" />
    <glyph glyph-name="W" unicode="W" horiz-adv-x="1392" 
d="M1320 100q-15 -26 -96 -60q-84 -35 -153 -38q-7 0 -13 7t-6 13q0 5 4 5q53 0 138 30q36 14 101 38q28 10 25 5zM1336 548q25 4 25 -13q0 -25 -25 -47q-55 -48 -270 -240q-58 -52 -157 -166q-75 -87 -94 -75q-6 4 -6 12q0 9 6 18q0 1 33 142q20 86 21 178
q-30 -5 -162 -137q-162 -162 -180.5 -190t-37.5 -28q-20 0 -20 20q42 167 44 180q18 95 18 214q0 47 -2 102q-5 105 -55 227q-78 189 -215 189q-58 0 -112 -57q-83 -86 -83 -263q0 -32 3 -66q4 -45 56 -160q0 -12 -16.5 -26.5t-29.5 -14.5q-30 0 -56 94q-21 78 -21 120
q0 108 53 222q41 89 84 130q82 79 178 79q21 0 33 -3q261 -72 261 -458q0 -34 -2 -78q-3 -53 -3 -56q-1 -26 -14.5 -119t-15.5 -141q12 -6 58 44q70 76 98 102q134 122 134 139q-1 36 -7 82q-16 108 -57 244q-3 7 22.5 30t46.5 21q11 -1 41 -86q19 -53 24 -77
q12 -59 12 -153q0 -125 -21 -326q22 5 197 193t214 198z" />
    <glyph glyph-name="X" unicode="X" horiz-adv-x="1283" 
d="M1164 737v-35q0 -32 -11 -40q-34 -19 -99 -57q-99 -61 -283 -202q-3 -2 -125 -116q2 -90 43 -162q38 -67 120 -67q69 0 158 46q20 11 135 78q19 16 31 16q4 0 4 -3q0 -8 -25 -30q-52 -46 -154 -93q-140 -65 -227 -65q-49 0 -72 16q-41 30 -78 130q-8 20 -13 64
q-130 -109 -230.5 -162t-176.5 -53q-79 0 -123 59q-41 55 -42 146q-1 82 50 184q37 73 75 116q32 36 44 45q16 14 34 14q13 0 41 -8q4 -1 4 -5q0 -13 -61 -82q-30 -34 -60 -95q-38 -76 -42 -136q-3 -46 -3 -43q0 -117 117 -141q15 -3 31 -3q67 0 155 57q68 44 183 146
q-14 280 226 659q19 30 76 57q52 25 84 25q15 0 16 -8q1 -10 -11 -22l-19 -18q-269 -367 -287 -574q-1 -16 -3 -46q30 27 254 229q22 20 92 75q22 17 152 104q9 6 15 6q5 0 5 -6z" />
    <glyph glyph-name="Y" unicode="Y" horiz-adv-x="1022" 
d="M1108 749q-83 -180 -207 -452q-26 -66 -95 -217l98 14q65 10 99 23q38 -1 38 -6q-1 -2 -6 -4q-70 -17 -248 -62q-28 -52 -60 -102q-74 -114 -164 -179t-177 -64q-94 1 -95 69q0 47 54 103q92 96 352 179q70 139 85 171q10 21 10 27q0 3 -4 3q-1 0 -5 -1q-68 -49 -136 -97
q-136 -98 -211 -122q-95 -31 -153 -31q-181 0 -133 248q72 374 444 596q23 14 23 20q0 5 -14 13q-108 62 -249 63q-102 1 -190 -54t-97 -122v-39q0 -25 -7 -32q-28 -27 -48 -27q-13 0 -13 18q2 176 209 268q91 41 207 41q106 0 188 -31q114 -42 114 -58q0 -3 -3 -7
q-36 -26 -71 -51q-80 -59 -143 -125q-91 -93 -146 -199q-126 -241 -126 -352q0 -116 128 -118q93 -2 270 123q164 115 206 189q23 41 82 177q54 123 71.5 148t56.5 49.5t58 24.5q10 0 10 -8q0 -3 -2 -7zM678 15q-9 -3 -19 -6q-101 -35 -184 -90q-111 -74 -111 -145
q0 -42 45 -42t104 43q64 47 103 120q34 64 62 120z" />
    <glyph glyph-name="Z" unicode="Z" horiz-adv-x="1120" 
d="M1125 467q4 -7 -24 -27q-31 -23 -73 -35t-185 -19q-136 -151 -243 -228q19 -11 57 -35q104 -68 217 -68q66 0 119 22q48 20 114 52q16 7 16 -1q0 -2 -4 -6q-29 -25 -100 -59q-106 -52 -194 -56q-114 -5 -303 100q-159 -95 -270 -104q-22 -2 -47 -2q-84 0 -138 19
q-74 26 -73 83q1 64 93.5 113.5t201.5 42.5q136 -9 283 -86l18 12q79 53 202 200h-39q-95 4 -383 0q-24 0 -24 6q0 2 2 4q24 25 74 60q20 9 316 3q39 -1 107 -4q55 72 81 129t54 116q23 53 23 80q0 26 -20 43q-43 36 -153 75q-125 44 -218 42h-129q-70 -3 -119 -25
q-61 -28 -113 -95q-38 -49 -87 -106q-7 -5 -12 -5q-12 0 -15 17q-2 12 27 58q36 54 85 96q63 55 135 72q158 38 255 38q122 0 269 -46q178 -56 178 -151q0 -43 -45 -129q-52 -98 -145 -213q108 -7 188 9q10 2 22 8q9 5 12 5q4 0 7 -5zM492 123q-12 7 -35 21q-39 24 -100 47
q-75 27 -120 26q-57 -2 -104 -25q-53 -27 -53 -67t50 -62q41 -17 100 -17q122 0 262 77z" />
    <glyph glyph-name="backslash" unicode="\" horiz-adv-x="653" 
d="M590 -108q-12 -8 -67 13q-117 45 -226 242q-24 43 -55 118q-28 68 -56 137q-90 211 -157 410q-64 193 -64 246q0 14 5 15q6 1 19 -24q17 -34 37 -55q52 -53 52 -69q0 -62 62 -274q165 -564 392 -726q28 -13 58 -33z" />
    <glyph glyph-name="a" unicode="a" horiz-adv-x="539" 
d="M566 118q2 -15 -11 -23q-60 -38 -148 -72q-47 -18 -77 -18q-39 0 -39 40v50q-116 -94 -201 -95q-50 0 -74 35q-16 25 -16 55q0 73 118 167t229 96q51 1 78 -13q21 -11 20 -24q0 -6 -28.5 -20.5t-41.5 -14.5q-8 0 -27 12.5t-33 12.5q-77 0 -147 -77q-64 -71 -64 -126
q0 -49 42 -48q62 1 117 47q19 16 44 47l40 50q63 72 82.5 76.5t28.5 4.5q14 0 14 -9q0 -6 -7 -20q-80 -156 -80 -186q0 -15 15 -15q19 0 137 60q20 10 26 10q3 0 3 -2z" />
    <glyph glyph-name="b" unicode="b" horiz-adv-x="446" 
d="M444 277q2 -62 -25 -107q-22 -37 -78 -83q-97 -80 -203 -87q-56 -4 -92 16q-48 27 -48 91q0 17 4 37q3 16 75 191q65 158 100 238q82 201 171 404q12 5 45 18q12 5 20 5q19 0 19 -21q0 -9 -3 -16l-286 -686q-3 -6 -3 -8t2 -2q3 0 11 5q32 21 73 44q63 35 110 35
q31 0 62 -15q45 -20 46 -59zM341 228q0 64 -64 64q-69 0 -131 -67q-55 -60 -58 -116q-1 -19 18 -43q23 -26 52 -26q62 1 122.5 63.5t60.5 124.5z" />
    <glyph glyph-name="c" unicode="c" horiz-adv-x="398" 
d="M431 284q0 -9 -27 -26q-39 -25 -59 -25q-11 0 -13 9q0 68 -40 68q-51 0 -116 -77t-65 -130q0 -57 72 -57q30 0 59 9q59 19 131 55q20 10 26 10q3 0 3 -2q2 -15 -11 -23q-9 -6 -94 -49q-93 -47 -186 -48q-59 0 -88 34q-20 23 -20 50q0 75 111.5 172t214.5 99
q47 1 74.5 -26.5t27.5 -42.5z" />
    <glyph glyph-name="d" unicode="d" horiz-adv-x="569" 
d="M607 689q-8 -32 -66 -201q-61 -177 -94 -261q-53 -135 -53 -151q0 -26 19 -26q5 0 12 2q43 13 131 58q20 10 26 10q3 0 3 -2q2 -10 -11 -23q-16 -16 -44 -28q-48 -21 -49 -21q-81 -42 -137 -41q-35 1 -43 24q-3 7 -3 38q-36 -19 -72 -37q-71 -32 -132 -30q-27 1 -54 19
q-38 26 -38 73q0 95 115 181q105 78 191 78q44 0 81 -20q83 176 83 225q0 6 -1 10q-7 18 5 46q54 123 78 123q9 0 34 -12q23 -18 19 -34zM364 265q0 42 -55 42q-63 0 -131 -71t-68 -134q0 -52 55 -52q47 0 119 66q80 74 80 149z" />
    <glyph glyph-name="e" unicode="e" horiz-adv-x="326" 
d="M357 118q2 -14 -11 -23q-64 -42 -150 -73q-63 -22 -116 -22q-103 0 -113 90q-8 70 107 175q41 37 94.5 62.5t98.5 25.5q38 0 62 -20q20 -17 20 -49q0 -54 -61 -96q-105 -52 -224 -118q22 -33 62 -33q28 0 71 14t131 59q20 10 26 10q3 0 3 -2zM225 309q-35 0 -91 -75
q-41 -56 -55 -88q-6 -13 0 -20q5 -4 115 68q64 42 64 79q0 14 -9.5 25t-23.5 11z" />
    <glyph glyph-name="f" unicode="f" horiz-adv-x="428" 
d="M456 719q-80 -204 -266 -675q38 -1 95 8q25 4 131 58q20 10 26 10q3 0 3 -2q2 -14 -11 -23q-5 -4 -93 -49q-33 -17 -56 -23q-62 -16 -111 -19l-80 -201q-16 -39 -22 -49q-9 -15 -25 -17q-24 -3 -37 -3q-21 0 -19 8l27 72q16 45 75 195q-98 21 -98 97q0 50 43 132
q30 57 57 91q17 21 41 21q29 0 29 -7q0 -2 -18 -30q-23 -37 -41 -82q-26 -63 -26 -102q0 -45 33 -66l214 561q34 107 60 108q3 0 18.5 1.5t24.5 1.5q27 0 27 -11q0 -2 -1 -5z" />
    <glyph glyph-name="g" unicode="g" horiz-adv-x="523" 
d="M576 118q2 -15 -11 -23q-52 -33 -93 -49q-44 -17 -99 -42q-15 -39 -27 -72q-49 -135 -153 -213q-76 -57 -130 -59q-18 -1 -29.5 17t-11.5 46q0 51 33 95q57 77 221 166l50 114q-34 -21 -67 -39q-79 -43 -138 -59q-21 -6 -45 -6q-105 0 -100 98q4 77 81 142q60 52 151 87
q76 30 113 30q22 0 74 -13q60 -15 60 -29q0 -7 -18 -17l-28 -14q-9 -6 -15 -4q-1 1 -13 10q-28 21 -81 25q-40 3 -89 -21q-73 -35 -108 -112q-21 -46 -21 -74q0 -49 67 -49q11 0 26 1q42 4 139 88q76 67 101 100q11 14 68 14q3 0 3 -3q0 -6 -32 -54q-14 -21 -68 -160
q18 7 30 13q35 13 132 58q20 10 25 10q3 0 3 -2zM257 -58q-73 -46 -124 -107q-33 -39 -33 -91q0 -31 14 -31q31 0 86 106q19 37 57 123z" />
    <glyph glyph-name="h" unicode="h" horiz-adv-x="542" 
d="M571 118q2 -15 -11 -23q-49 -31 -149 -72q-56 -23 -77 -23q-17 0 -33 12.5t-16 28.5q0 23 52 122q50 96 50 111q0 7 -5 8q-65 -23 -211.5 -148t-172.5 -134q-19 -7 -26 0q-5 4 -5 11q0 5 5 15q29 62 124 272q95 214 119 272l155 375q4 23 18 67q21 45 88 45q18 0 18 -15
q0 -3 -1 -6q-45 -122 -166 -429q-51 -109 -101 -218q-83 -181 -83 -211q0 -8 5 -7q20 5 153 101q109 79 140 79q12 0 32 -16t20 -31q0 -14 -51 -112q-21 -40 -37 -81q-21 -53 -23 -58q-3 -7 5 -7q30 0 155 64q20 10 26 10q3 0 3 -2z" />
    <glyph glyph-name="i" unicode="i" horiz-adv-x="276" 
d="M293 570q-1 -36 -20 -57q-30 -32 -51 -25q-23 8 -21 58q1 31 29.5 56t43.5 18q20 -6 19 -50zM294 118q2 -15 -11 -23q-6 -4 -93 -49q-17 -9 -68 -27q-54 -19 -67 -19q-56 1 -56 29q0 30 62 167.5t84 146.5q43 19 51 19q9 0 14 -6q2 -10 -4 -22l-104 -263q-1 6 -1 -12
q0 -11 11 -11q8 0 23 6q34 13 130 56q20 10 26 10q3 0 3 -2z" />
    <glyph glyph-name="j" unicode="j" horiz-adv-x="275" 
d="M276 570q-1 -38 -34 -74q-16 -15 -36 -8q-23 9 -21 58q1 30 29 55.5t44 18.5q19 -6 18 -50zM309 118q2 -15 -11.5 -23.5t-93.5 -48.5q-21 -11 -85 -56q-19 -64 -32 -107q-69 -225 -136 -212q-33 7 -33 77q0 62 29 124q39 84 104 131q9 72 33 159q9 32 26 58q-5 3 -12 2
q-55 -98 -112 -126q-5 -2 -9.5 3t-4.5 10q0 3 2 4q43 31 66 64q29 46 59 93q55 80 122 80q22 0 22 -12q0 -29 -43 -105q-21 -38 -65 -186q14 5 37 13q51 21 108 50q20 10 26 10q3 0 3 -2zM42 -80q-46 -51 -61.5 -100.5t-15.5 -78.5q0 -21 7 -21q5 0 9 10q49 113 61 190z" />
    <glyph glyph-name="k" unicode="k" horiz-adv-x="472" 
d="M505 117q2 -15 -11 -22q-29 -19 -97 -52q-90 -44 -123 -44q-86 0 -131 114q-4 9 22 26.5t42 16.5q9 -3 16 -10q14 -14 21 -11q130 51 130 117q0 19 -16.5 30.5t-36.5 11.5q-30 0 -118 -60q-98 -67 -122 -116q-7 -11 -33 -94q-2 -6 -18 -11q-9 -3 -29 -9q-8 -3 -21 -3
q-23 0 -23 14q0 4 2 9q29 69 87 204q27 64 153 400q113 303 132 339q37 71 80 82q32 8 37 0q6 -10 0 -26q-12 -31 -147 -394q-2 -7 -84 -204q-63 -155 -69 -189q38 28 140 87q58 28 96 28q34 0 61.5 -23t27.5 -56q0 -59 -77 -99q-14 -7 -142 -70q7 -21 29 -38t45 -17
q8 0 16 3q64 24 132 58q20 10 26 10q3 0 3 -2z" />
    <glyph glyph-name="l" unicode="l" horiz-adv-x="322" 
d="M355 117q2 -14 -11 -22q-9 -5 -95 -50q-22 -12 -69 -29q-59 -21 -84 -21q-120 -6 -114 60q1 10 56 150l195 497q31 53 83 48q33 -3 29 -23l-261 -672q-3 -7 -3 -11q0 -14 26 -14q63 1 219 79q21 10 25 10q3 0 4 -2z" />
    <glyph glyph-name="m" unicode="m" horiz-adv-x="790" 
d="M837 117q2 -14 -10.5 -22t-95.5 -50q-90 -46 -149 -46q-54 0 -54 38q0 21 44 111t44 120q1 10 -2 13q-9 10 -106 -71q-106 -88 -176 -195q-11 -16 -70 -16q-17 0 -17 6q0 4 6 17l108 237q6 10 6 15q0 4 -6 2q-45 -3 -132 -85q-57 -54 -128 -123t-97 -69h-12q-5 1 -3 9
q16 67 58 164q69 157 147 168q23 3 17 3q8 0 8 -8q0 -6 -4 -16q-5 -13 -45 -96q-32 -66 -27 -66q1 0 2 1q48 40 137 110q106 78 145 78q17 0 30 -11t13 -27l-65 -141q-3 -7 -3 -8q0 -2 1 -2q4 0 18 10q41 37 65 56q41 34 81 60q105 68 126 68q13 0 29 -9.5t16 -21.5
q0 -4 -2 -7q-121 -269 -121 -265q0 -11 23 -11q8 0 67 24.5t105 47.5q21 10 25 10q3 0 4 -2z" />
    <glyph glyph-name="n" unicode="n" horiz-adv-x="525" 
d="M568 118q2 -14 -11 -22q-24 -14 -94 -50q-92 -47 -155 -47q-20 0 -37 12t-17 31q0 7 48 110q21 44 49 108q6 10 6 15q0 4 -6 2q-17 -5 -48 -23q-84 -48 -285 -237q-17 -16 -33 -16h-35q-13 0 -6 21q18 59 69 177q46 105 58 125q4 9 8.5 11.5t27.5 5.5t64 5q11 1 11 -8
q0 -7 -11 -25q-22 -34 -72 -140q-9 -18 -3 -17q23 1 153.5 98t166.5 97q24 0 41 -17t12 -30q-3 -5 -55 -115q-54 -114 -63 -136q-2 -4 -2 -8q0 -8 12 -8q15 0 46 14q35 14 132 59q20 10 26 10q3 0 3 -2z" />
    <glyph glyph-name="o" unicode="o" horiz-adv-x="478" 
d="M502 118q2 -15 -11 -22q-16 -12 -58 -32q-51 -15 -81 -9l-9 -6q-25 -16 -68 -31q-69 -24 -132 -22q-69 2 -106.5 33t-37.5 77q0 57 52 112q64 68 148 103q69 30 127 30q44 0 85 -16q36 -15 36 -24q0 -6 -23.5 -14t-35.5 -9q-3 0 -22 12q-23 14 -53 19q-55 9 -128 -48
q-80 -63 -84 -146q-4 -96 87 -96q51 0 101 24q13 6 35 19q-34 32 -34 77q0 27 14 57q28 58 73 58q26 0 46 -24q13 -16 13 -42q0 -58 -53 -115q17 -1 50 7q13 6 40 20q21 10 26 10q3 0 3 -2zM388 226q-16 1 -27 -26t-11 -60q0 -29 7 -43q17 17 30 35q21 29 21 61t-20 33z" />
    <glyph glyph-name="p" unicode="p" horiz-adv-x="500" 
d="M548 118q2 -14 -11 -22q-35 -21 -94 -50q-12 -6 -56 -23q-62 -24 -97 -24q-19 0 -33.5 12.5t-14.5 31.5q0 23 40 109q50 107 50 125q0 5 -4 5q-22 -3 -125 -100q-115 -108 -143 -177q-38 -91 -75 -196q-9 -27 -19 -53q-13 -23 -44 -23q-18 0 -22 2q-11 6 -11 12q0 3 1 7
l133 425q2 7 2 19q0 21 -8.5 58.5t-8.5 36.5q0 13 15 27q20 18 42 15q11 -1 26 -25q22 -34 22 -87q0 -44 -13 -106q27 19 137 136q92 98 138 98q54 0 54 -48q0 -26 -45 -117.5t-45 -117.5q0 -21 16 -21q13 0 32 6q48 15 132 57q21 10 26 10q3 0 3 -2z" />
    <glyph glyph-name="q" unicode="q" horiz-adv-x="465" 
d="M495 310q10 -10 0 -15q-40 -21 -64 -21q-16 0 -40 18.5t-59 20.5q-68 3 -153 -72.5t-85 -143.5q0 -52 57 -52q63 0 114 34q27 18 85 73q71 67 101 67q15 0 15 -12q0 -5 -3 -11q-16 -31 -91 -187q-55 -123 -126 -269q-32 -47 -85 -47q-21 0 -10 23l161 350q3 4 -2 6
q-4 3 -11 -1q-118 -75 -200 -75q-57 0 -84 36q-19 24 -19 55q0 95 137 184q129 84 231 84q64 0 131 -45z" />
    <glyph glyph-name="r" unicode="r" horiz-adv-x="312" 
d="M366 314q0 -42 -35 -94q-42 -62 -81 -62q-6 0 -12 2q-16 13 -16 20q0 15 18 37q22 26 22 49q0 5 -3 5q-16 0 -72 -47q-46 -38 -81 -89q-43 -60 -39 -99q0 -5 12 -5q22 0 92 22q52 16 132 57q20 10 26 10q3 0 3 -2q4 -14 -11 -22q-25 -16 -94 -50q-29 -14 -77 -29
q-71 -23 -120 -23q-63 0 -54 53q7 39 55 148q47 106 87 147q15 16 67 9q7 -1 7 -8q0 -6 -24 -55q-15 -30 -29 -59q44 33 89 66q77 56 101 56q37 -1 37 -37z" />
    <glyph glyph-name="s" unicode="s" horiz-adv-x="347" 
d="M347 319q0 -10 -17 -27q-9 -10 -23 -22q-4 0 -12 6q-11 11 -33 21q-10 5 -18 5q-13 0 -13 -15q0 -9 4 -22q36 -108 36 -117q0 -55 -63 -107q-52 -43 -101 -42q-51 1 -82 37q-26 30 -26 62v41q0 21 19 37q14 12 49 36q4 2 6 2q9 0 9 -28q0 15 -2 -47q-2 -43 16.5 -69
t51.5 -26q55 0 55 64q0 10 -23 61t-23 69q0 35 51 75q48 38 85 38q11 0 32.5 -11t21.5 -21z" />
    <glyph glyph-name="t" unicode="t" horiz-adv-x="300" 
d="M316 118q2 -15 -11 -23q-47 -30 -93 -50q-107 -46 -153 -46q-61 0 -61 56q0 16 25 77q19 46 68 167l-73 -11q-25 -5 -20 6q8 20 16.5 26t94.5 23l83 203q13 25 28 30q25 9 53 18q11 3 18 3q13 0 13 -11q0 -6 -6 -19q-24 -48 -94 -206q37 7 69 13q10 3 18 3q14 0 14 -10
q0 -42 -34 -44q-10 -1 -89 -12q-69 -154 -86 -196q-10 -24 -10 -41q0 -31 30 -31q16 0 39 9q35 14 132 58q20 10 25 10q3 0 4 -2z" />
    <glyph glyph-name="u" unicode="u" horiz-adv-x="539" 
d="M567 118q2 -15 -11 -23q-9 -6 -94 -49q-93 -48 -140 -47q-28 0 -41 19q-10 14 -8 24q7 29 38 113q6 17 1 18q-4 1 -11 -5q-39 -41 -116 -95q-103 -74 -155 -74q-20 0 -33.5 12t-13.5 30q0 7 2 14q21 76 44 129q60 138 137 166q30 11 37 0q4 -6 2 -19q-2 -12 -7 -19
q-29 -35 -66 -120q-48 -110 -48 -123q0 -10 11 -10q28 0 99 56q52 40 90 78q70 70 99 110q20 27 29 34q15 12 42 15q17 2 26 2q17 0 17 -7q0 -5 -6 -15q-14 -30 -58 -118q-68 -135 -68 -156q0 -15 18 -15q10 0 23 6q35 15 132 61q21 10 25 10q3 0 4 -2z" />
    <glyph glyph-name="v" unicode="v" horiz-adv-x="321" 
d="M317 284q0 -57 -56 -134q-40 -55 -117 -107q-66 -44 -101 -44q-21 0 -26.5 7t-5.5 33v23q1 18 1 32q0 54 -5 113q-2 25 -9 60t-7 37q0 14 15 27q19 16 31 16q5 0 10 -2q20 -9 32 -79q12 -64 12 -143q0 -37 -3 -68q-1 -7 4 -7t16 7q156 94 153 147q0 4 -18 21t-18 51
q0 22 20.5 49t41.5 27q30 0 30 -66z" />
    <glyph glyph-name="w" unicode="w" horiz-adv-x="490" 
d="M492 284q0 -58 -56 -134q-42 -57 -118 -109q-61 -42 -84 -42q-27 0 -27 27q0 9 3 24.5t6 53.5q4 45 0 48q-43 -50 -103 -100q-63 -53 -81 -53q-33 0 -34 83q2 63 3 125q-3 51 2 97v16q2 10 9 15q18 13 32 13q6 0 12 -3q32 -16 32 -149q0 -41 -3 -87q-2 -22 9 -22q5 0 9 3
q56 43 105 112q-2 56 3 129q4 9 22 11t36 3q25 2 25 -158q0 -32 -3 -111q0 -11 6 -12q6 -2 13 4q44 33 85.5 76t40.5 58q0 4 -18 21t-18 51q0 22 20.5 49t41.5 27q30 0 30 -66z" />
    <glyph glyph-name="x" unicode="x" horiz-adv-x="491" 
d="M554 118q2 -15 -11 -23q-9 -6 -94 -49q-16 -8 -55.5 -23t-78.5 -15q-81 0 -114 53q-8 -7 -22 -20q-47 -42 -100 -42q-20 0 -38 7q-39 16 -39 72q0 10 1.5 19.5t21.5 19.5q16 8 33 15q5 2 8 2q9 0 13 -19q8 -39 36 -52q7 -3 15 -3q20 0 49 21q2 0 11 8q-5 19 -5 46
q0 56 18 107q21 59 56 79q57 32 73 32q5 0 5 -4q-19 -38 -33 -69q-33 -78 -37 -123q60 55 85 81q52 54 108 87q36 21 56 25q8 2 8 -14q1 -3 -1 -29q-1 -13 -2 -16.5t-7.5 -11t-161.5 -91.5q-30 -16 -83 -64q9 -32 41 -51q29 -17 64 -17q10 0 20 2q43 8 131 52q21 10 25 10
q3 0 4 -2z" />
    <glyph glyph-name="y" unicode="y" horiz-adv-x="515" 
d="M569 118q2 -15 -11 -23q-9 -6 -94 -49q-43 -19 -126 -62q-11 -26 -35 -79q-68 -150 -151 -200q-51 -31 -99 -31q-28 0 -35 18q-5 15 -5 30q0 68 101 153q60 50 134 94q48 105 56 136q2 8 -1 8l-17 -7q-57 -36 -179 -97q-22 -9 -43 -9q-47 0 -63 34q-6 13 38 122
q29 70 58 139q11 28 50 42q25 8 50 15q10 4 10 -7q0 -14 -15 -45q-67 -139 -101 -251q-3 -11 6 -11q15 0 73 36l86 56q33 21 64 58q23 28 46 57q28 33 96 45q4 1 4 -4q0 -8 -23 -57q-22 -52 -87 -203l11 6q35 19 88 41q58 23 85 37q20 10 26 10q3 0 3 -2zM219 -94
q-39 -27 -55 -42q-22 -20 -54 -65q-36 -52 -36 -74q0 -10 7 -10q15 0 49.5 36t51 73.5t37.5 81.5z" />
    <glyph glyph-name="z" unicode="z" horiz-adv-x="398" 
d="M400 318q0 -11 -56 -53q-25 -19 -96 -76q44 1 90 1q18 0 18 -9l-3.5 -14.5t-25.5 -13.5h-123q-66 -54 -73 -64q33 6 58 6q21 0 61.5 -11t64.5 -11q29 0 46 8q28 13 38 13q5 0 5 -4q0 -8 -20.5 -27.5t-38.5 -30.5q-61 -36 -104 -33q-57 -3 -100 8q-30 8 -55 8
q-30 0 -85 -16q-4 -1 -5 13t5 19q39 35 147 122h-87q-4 0 -4 5q0 7 7 18t14 11l113 2q64 51 79 69q-108 8 -178 1q-16 -2 -19 -2q-7 -2 -7 -5q-1 -9 -8.5 -17.5t-18.5 -6.5q-4 1 -4 7q0 4 31 80q12 30 26 30q114 -23 148 -21q26 2 80.5 14t53.5 12q9 0 17.5 -11.5t8.5 -20.5
z" />
    <glyph glyph-name="exclamdown" unicode="&#xa1;" horiz-adv-x="312" 
d="M299 1030q-26 -35 -46 -28q-15 5 -22 41q-7 38 10 62q30 42 53 33q22 -8 25 -51q2 -27 -20 -57zM25 26q-20 -20 -34 -14q-35 14 -35 89q0 22 3 48q20 165 87 415q49 179 77 255q16 44 18 49q10 21 20 22t23 -19l18 -26q6 -15 -11 -68q-76 -236 -126 -518
q-20 -116 -40 -233z" />
    <glyph glyph-name="questiondown" unicode="&#xbf;" horiz-adv-x="631" 
d="M569 968q-1 -44 20 -53q22 -9 55 28q19 22 16 62q-3 44 -26 44q-19 0 -41.5 -26t-23.5 -55zM0 229q-6 -113 50 -171.5t165 -58.5q131 0 225 73q70 54 120 150q28 62 55 125q10 16 0 59q-1 3 -14 3q-29 0 -63 -12q-40 -14 -42 -35q-30 -285 -207 -282q-54 1 -92 27
q-49 33 -56 99q-2 19 -2 37q0 130 97 248q62 75 149 130q205 131 234 160q6 5 6 8t-13.5 15t-14.5 12q-2 0 -5 -2l-230 -120q-158 -85 -240 -176q-113 -125 -122 -289z" />
    <glyph glyph-name="AE" unicode="&#xc6;" horiz-adv-x="327" 
d="M363 313q0 -42 -35 -94q-42 -62 -81 -62q-6 0 -12 2q-16 13 -16 20q0 15 18 37q22 26 22 49q0 5 -3 5q-15 0 -72 -47q-85 -70 -123 -195q-4 -14 -18 -18q-18 -7 -71 -7q-11 0 -11 15q0 21 23 76q23 50 45 100q47 106 87 147q15 15 66 9q7 -1 7 -9q0 -5 -24 -54
q-14 -30 -28 -59l88 66q77 56 101 56q37 -1 37 -37z" />
    <glyph glyph-name="Ntilde" unicode="&#xd1;" horiz-adv-x="1021" 
d="M1249 875q1 -2 1 -6q0 -11 -7 -27t-13 -16q-2 0 -4 2q-25 34 -52 34q-13 0 -50 -11q-26 -8 -64 -18q-55 -14 -70 -14q-40 0 -67 38q-1 2 -1 7q0 11 6.5 26.5t12.5 15.5q2 0 4 -2q23 -31 56 -31q15 0 46 8q26 8 64 18q57 14 71 14q40 0 67 -38zM1030 610l-236 -371
q-51 -75 -51 -130q0 -11 1 -24q4 -35 -14 -56q-2 -4 -36 -31q-12 -10 -17 -10q-8 0 -19 46q-6 26 -6 68q0 81 10 115q-10 -3 -14 6.5t-3 47.5q0 6 -4 93q-118 -170 -253 -273q-123 -94 -203 -91q-185 6 -185 205q0 112 86 217q55 68 106 97q18 10 30 10q10 0 10 -9
q0 -12 -21 -40q-131 -178 -131 -289q0 -68 49 -104q40 -28 95 -28q18 0 33 4q191 49 380 359q-9 174 -1 263q15 175 91 256q51 55 108 55q9 0 13 -2q29 -17 29 -88q0 -144 -154 -411q0 -63 2 -139t2 -72q0 -76 16 -76q5 0 12 17q54 135 157 296q72 113 113 161q4 5 7 5
q5 0 5 -16q0 -21 -7 -61zM1025 93q-118 -87 -204 -83q-4 0 -4 5q0 21 23 26q108 23 175 66q7 5 11 5q6 0 4 -9q-1 -7 -5 -10zM792 922q-26 -26 -39 -69q-15 -49 -24 -157q-3 -35 -5 -116q38 78 57 139q29 90 29 175q0 33 -10 33q-3 0 -8 -5z" />
    <glyph glyph-name="ntilde" unicode="&#xf1;" horiz-adv-x="525" 
d="M512 464q1 -2 1 -6q0 -12 -6 -27.5t-13 -15.5q-2 0 -4 3q-25 33 -53 33q-13 0 -50 -10q-26 -8 -63 -18q-55 -15 -71 -15q-40 0 -67 38q-1 2 -1 6q0 12 6 28t13 16q2 0 4 -3q23 -31 56 -31q16 0 47 8q26 8 63 18q57 14 71 14q40 0 67 -38zM568 118q2 -14 -11 -22
q-24 -14 -94 -50q-92 -47 -155 -47q-20 0 -37 12t-17 31q0 7 48 110q21 44 49 108q6 10 6 15q0 4 -6 2q-17 -5 -48 -23q-84 -48 -285 -237q-17 -16 -33 -16h-35q-13 0 -6 21q18 59 69 177q46 105 58 125q4 9 8.5 11.5t27.5 5.5t64 5q11 1 11 -8q0 -7 -11 -25
q-22 -34 -72 -140q-9 -18 -3 -17q23 1 153.5 98t166.5 97q24 0 41 -17t12 -30q-3 -5 -55 -115q-54 -114 -63 -136q-2 -4 -2 -8q0 -8 12 -8q15 0 46 14q35 14 132 59q20 10 26 10q3 0 3 -2z" />
    <glyph glyph-name="quoteleft" unicode="&#x2018;" horiz-adv-x="168" 
d="M146 751q-30 0 -76 78q-43 73 -43 108q0 50 21 50q19 0 41 -18q30 -25 30 -56q0 -12 15 -80.5t15 -72.5q0 -8 -3 -9z" />
    <glyph glyph-name="quoteright" unicode="&#x2019;" horiz-adv-x="168" 
d="M144 938q0 -37 -44 -110q-46 -77 -75 -77q-2 2 -2 5q0 14 14 77q15 68 15 81q0 33 30 56q23 18 41 18q21 0 21 -50z" />
    <glyph glyph-name="quotedblleft" unicode="&#x201c;" horiz-adv-x="304" 
d="M293 751q-29 0 -75 77q-44 73 -44 109q0 50 21 50q18 0 41 -18q30 -24 30 -56q0 -12 15 -80.5t15 -72.5q0 -8 -3 -9zM150 751q-29 0 -75 77q-44 73 -44 109q0 50 21 50q18 0 41 -18q30 -24 30 -56q0 -12 15 -80q16 -71 16 -73q0 -8 -4 -9z" />
    <glyph glyph-name="quotedblright" unicode="&#x201d;" horiz-adv-x="304" 
d="M290 937q0 -36 -44 -109q-46 -77 -76 -77q-3 1 -3 9q0 4 15 72.5t15 80.5q0 31 31 56q22 18 41 18q21 0 21 -50zM147 937q0 -36 -44 -109q-46 -77 -75 -77q-4 1 -4 9q0 2 16 73q15 68 15 80q0 32 30 56q22 18 41 18q21 0 21 -50z" />
    <glyph glyph-name="notequal" unicode="&#x2260;" horiz-adv-x="270" 
d="M276 570q-1 -38 -34 -74q-16 -15 -36 -8q-23 9 -21 58q1 30 29 55.5t44 18.5q19 -6 18 -50zM309 118q2 -15 -11.5 -23.5t-93.5 -48.5q-21 -11 -85 -56q-19 -64 -32 -107q-69 -225 -136 -212q-33 7 -33 77q0 62 29 124q39 84 104 131q9 72 33 159q9 32 26 58q-5 3 -12 2
q-55 -98 -112 -126q-5 -2 -9.5 3t-4.5 10q0 3 2 4q43 31 66 64q29 46 59 93q55 80 122 80q22 0 22 -12q0 -29 -43 -105q-21 -38 -65 -186q14 5 37 13q51 21 108 50q20 10 26 10q3 0 3 -2z" />
    <glyph glyph-name="glyph90" horiz-adv-x="1000" 
 />
  </font>
</defs>
</svg>
